<svg viewBox="320 270.5 407 100" width="5000" height="1228.5012285012285" xmlns="http://www.w3.org/2000/svg" xmlns:xlink="http://www.w3.org/1999/xlink" preserveAspectRatio="none"><defs></defs><style>.aTZK6kbmJQfillColor {fill:#000000;fill-opacity:1;}.background {fill:#000000;fill-opacity:1;}.companyName {fill:#000000;fill-opacity:1;}.icon1 {fill:#000000;fill-opacity:1;}.icon2 {fill:#3F3F3F;fill-opacity:1;}.icon3 {fill:#797979;fill-opacity:1;}.shapeStroke-str {stroke:#3F3F3F;stroke-opacity:1;}.text {fill:#000000;fill-opacity:1;}</style><g opacity="0.2" transform="rotate(0 320 270.5)">
<svg width="407" height="100" x="320" y="270.5" version="1.1" preserveAspectRatio="none" viewBox="0 0 407 100">
  <rect x="0" y="0" width="407" height="100" class="aTZK6kbmJQfillColor shapeStroke-str" style="stroke-width:0;" rx="0px" ry="0px" />
</svg>
</g><g opacity="0.2" transform="rotate(0 335 282.9375)">
<svg width="75.125" height="75.125" x="335" y="282.9375" version="1.1" preserveAspectRatio="none" viewBox="0 0 75.125 75.125">
  <rect x="0" y="0" width="75.125" height="75.125" class="icon1 shapeStroke-str" style="stroke-width:0;" rx="150px" ry="150px" />
</svg>
</g><g opacity="0.2" transform="rotate(0 346.2688 308.2673)">
<svg width="52.5874" height="24.4655" x="346.2688" y="308.2673" version="1.1" preserveAspectRatio="none" viewBox="7.767000198364258 51.69300079345703 183.5099945068359 85.37499237060547">
  <g transform="matrix(1 0 0 1 0 0)" ><g><path d="M178.752 121.175h-8V92.854l-42.739-31.219L99.51 82.877H29.201v38.298h-8V74.877h75.655l31.109-23.184 50.787 37.099v32.383z" data-color="1" class="background"></path><path d="M191.277 129.068v8H7.767v-8h183.51z" data-color="1" class="background"></path><path d="M131.794 91.26v15.298h-8V91.26h8z" data-color="1" class="background"></path><path d="M75.724 91.26v15.298h-8V91.26h8z" data-color="1" class="background"></path><path d="M51.213 91.26v15.298h-8V91.26h8z" data-color="1" class="background"></path></g></g>
</svg>
</g><g opacity="1" transform="rotate(0 426.1773 334.9471)">
<svg width="281.7637" height="14.4471" x="426.1773" y="334.9471" version="1.1" preserveAspectRatio="none" viewBox="2.92 -30.64 807.44 41.400000000000006">
  <g transform="matrix(1 0 0 1 0 0)" class="text"><path d="M24.84-28.20L24.84 0L21.20 0L6.56-22.28L6.56 0L2.92 0L2.92-28.20L6.56-28.20L21.20-5.88L21.20-28.20L24.84-28.20Z M54.88-12.20Q54.88-11.04 54.72-10.20L54.72-10.20L37.16-10.20Q37.28-6.44 39.30-4.56Q41.32-2.68 44.24-2.68L44.24-2.68Q46.88-2.68 48.66-4.02Q50.44-5.36 50.84-7.60L50.84-7.60L54.72-7.60Q54.32-5.32 52.94-3.52Q51.56-1.72 49.36-0.72Q47.16 0.28 44.40 0.28L44.40 0.28Q41.24 0.28 38.80-1.08Q36.36-2.44 34.98-4.98Q33.60-7.52 33.60-10.96L33.60-10.96Q33.60-14.40 34.98-16.96Q36.36-19.52 38.80-20.88Q41.24-22.24 44.40-22.24L44.40-22.24Q47.60-22.24 49.98-20.88Q52.36-19.52 53.62-17.24Q54.88-14.96 54.88-12.20L54.88-12.20ZM51.20-11.96Q51.32-14.40 50.40-16.04Q49.48-17.68 47.88-18.48Q46.28-19.28 44.40-19.28L44.40-19.28Q41.40-19.28 39.36-17.42Q37.32-15.56 37.16-11.96L37.16-11.96L51.20-11.96Z M90.32-21.96L93.80-21.96L87.48 0L83.56 0L77.52-17.88L71.44 0L67.48 0L61.24-21.96L64.92-21.96L69.60-3.48L75.68-21.96L79.48-21.96L85.60-3.52L90.32-21.96Z M127.56-28.48Q132.72-28.48 136.08-25.94Q139.44-23.40 140.72-19L140.72-19L136.88-19Q135.80-21.80 133.40-23.46Q131-25.12 127.52-25.12L127.52-25.12Q124.76-25.12 122.58-23.78Q120.40-22.44 119.14-19.94Q117.88-17.44 117.88-14.08L117.88-14.08Q117.88-10.76 119.14-8.28Q120.40-5.80 122.58-4.46Q124.76-3.12 127.52-3.12L127.52-3.12Q131-3.12 133.40-4.78Q135.80-6.44 136.88-9.24L136.88-9.24L140.72-9.24Q139.44-4.84 136.08-2.30Q132.72 0.24 127.56 0.24L127.56 0.24Q123.60 0.24 120.56-1.58Q117.52-3.40 115.82-6.66Q114.12-9.92 114.12-14.08L114.12-14.08Q114.12-18.28 115.82-21.56Q117.52-24.84 120.56-26.66Q123.60-28.48 127.56-28.48L127.56-28.48Z M159.56-22.24Q162.72-22.24 165.22-20.88Q167.72-19.52 169.14-16.96Q170.56-14.40 170.56-10.96L170.56-10.96Q170.56-7.52 169.14-4.98Q167.72-2.44 165.22-1.08Q162.72 0.28 159.56 0.28L159.56 0.28Q156.40 0.28 153.90-1.08Q151.40-2.44 149.96-4.98Q148.52-7.52 148.52-10.96L148.52-10.96Q148.52-14.40 149.96-16.96Q151.40-19.52 153.90-20.88Q156.40-22.24 159.56-22.24L159.56-22.24ZM159.56-19.04Q157.60-19.04 155.94-18.16Q154.28-17.28 153.26-15.46Q152.24-13.64 152.24-10.96L152.24-10.96Q152.24-8.32 153.26-6.50Q154.28-4.68 155.94-3.80Q157.60-2.92 159.56-2.92L159.56-2.92Q161.52-2.92 163.18-3.80Q164.84-4.68 165.86-6.50Q166.88-8.32 166.88-10.96L166.88-10.96Q166.88-13.64 165.86-15.46Q164.84-17.28 163.18-18.16Q161.52-19.04 159.56-19.04L159.56-19.04Z M190.88-22.32Q194.72-22.32 197.08-19.86Q199.44-17.40 199.44-12.76L199.44-12.76L199.44 0L195.80 0L195.80-12.44Q195.80-15.72 194.12-17.48Q192.44-19.24 189.56-19.24L189.56-19.24Q186.56-19.24 184.76-17.30Q182.96-15.36 182.96-11.64L182.96-11.64L182.96 0L179.32 0L179.32-21.96L182.96-21.96L182.96-16.76Q183.80-19.44 185.94-20.88Q188.08-22.32 190.88-22.32L190.88-22.32Z M215.92-22.24Q219.64-22.24 221.90-20.30Q224.16-18.36 224.64-15.08L224.64-15.08L221.16-15.08Q220.92-17.04 219.54-18.30Q218.16-19.56 215.84-19.56L215.84-19.56Q213.88-19.56 212.78-18.62Q211.68-17.68 211.68-16.08L211.68-16.08Q211.68-14.88 212.42-14.14Q213.16-13.40 214.26-13.02Q215.36-12.64 217.28-12.20L217.28-12.20Q219.72-11.64 221.22-11.06Q222.72-10.48 223.78-9.20Q224.84-7.92 224.84-5.76L224.84-5.76Q224.84-3.08 222.82-1.40Q220.80 0.28 217.44 0.28L217.44 0.28Q213.52 0.28 211.04-1.60Q208.56-3.48 208.12-6.84L208.12-6.84L211.64-6.84Q211.84-4.84 213.38-3.60Q214.92-2.36 217.44-2.36L217.44-2.36Q219.32-2.36 220.38-3.32Q221.44-4.28 221.44-5.84L221.44-5.84Q221.44-7.12 220.68-7.88Q219.92-8.64 218.80-9.04Q217.68-9.44 215.72-9.88L215.72-9.88Q213.28-10.44 211.82-11Q210.36-11.56 209.34-12.78Q208.32-14 208.32-16.08L208.32-16.08Q208.32-18.84 210.36-20.54Q212.40-22.24 215.92-22.24L215.92-22.24Z M241.96-3.20L244.20-3.20L244.20 0L241.48 0Q238.12 0 236.46-1.60Q234.80-3.20 234.80-6.96L234.80-6.96L234.80-18.80L231.52-18.80L231.52-21.96L234.80-21.96L234.80-27.44L238.48-27.44L238.48-21.96L244.16-21.96L244.16-18.80L238.48-18.80L238.48-6.88Q238.48-4.76 239.26-3.98Q240.04-3.20 241.96-3.20L241.96-3.20Z M256.28-17.52Q257.36-19.80 259.44-21.06Q261.52-22.32 264.40-22.32L264.40-22.32L264.40-18.36L263.28-18.36Q260.20-18.36 258.24-16.78Q256.28-15.20 256.28-11.56L256.28-11.56L256.28 0L252.64 0L252.64-21.96L256.28-21.96L256.28-17.52Z M287.88-21.96L291.52-21.96L291.52 0L287.88 0L287.88-5.16Q287.04-2.48 284.90-1.06Q282.76 0.36 279.92 0.36L279.92 0.36Q276.12 0.36 273.76-2.10Q271.40-4.56 271.40-9.16L271.40-9.16L271.40-21.96L275.04-21.96L275.04-9.52Q275.04-6.24 276.72-4.46Q278.40-2.68 281.28-2.68L281.28-2.68Q284.28-2.68 286.08-4.62Q287.88-6.56 287.88-10.28L287.88-10.28L287.88-21.96Z M311.08-22.24Q315.28-22.24 318.04-20Q320.80-17.76 321.44-14L321.44-14L317.60-14Q317.20-16.36 315.42-17.70Q313.64-19.04 311-19.04L311-19.04Q309.08-19.04 307.50-18.16Q305.92-17.28 304.96-15.46Q304-13.64 304-10.96L304-10.96Q304-8.28 304.96-6.46Q305.92-4.64 307.50-3.76Q309.08-2.88 311-2.88L311-2.88Q313.64-2.88 315.42-4.24Q317.20-5.60 317.60-7.96L317.60-7.96L321.44-7.96Q320.80-4.16 318.04-1.94Q315.28 0.28 311.08 0.28L311.08 0.28Q307.92 0.28 305.48-1.08Q303.04-2.44 301.66-4.98Q300.28-7.52 300.28-10.96L300.28-10.96Q300.28-14.40 301.66-16.96Q303.04-19.52 305.48-20.88Q307.92-22.24 311.08-22.24L311.08-22.24Z M338.44-3.20L340.68-3.20L340.68 0L337.96 0Q334.60 0 332.94-1.60Q331.28-3.20 331.28-6.96L331.28-6.96L331.28-18.80L328-18.80L328-21.96L331.28-21.96L331.28-27.44L334.96-27.44L334.96-21.96L340.64-21.96L340.64-18.80L334.96-18.80L334.96-6.88Q334.96-4.76 335.74-3.98Q336.52-3.20 338.44-3.20L338.44-3.20Z M348.48-28.40Q348.48-29.40 349.16-30.02Q349.84-30.64 350.96-30.64L350.96-30.64Q352.08-30.64 352.76-30.02Q353.44-29.40 353.44-28.40L353.44-28.40Q353.44-27.40 352.76-26.78Q352.08-26.16 350.96-26.16L350.96-26.16Q349.84-26.16 349.16-26.78Q348.48-27.40 348.48-28.40L348.48-28.40ZM349.12-21.96L352.76-21.96L352.76 0L349.12 0L349.12-21.96Z M372.56-22.24Q375.72-22.24 378.22-20.88Q380.72-19.52 382.14-16.96Q383.56-14.40 383.56-10.96L383.56-10.96Q383.56-7.52 382.14-4.98Q380.72-2.44 378.22-1.08Q375.72 0.28 372.56 0.28L372.56 0.28Q369.40 0.28 366.90-1.08Q364.40-2.44 362.96-4.98Q361.52-7.52 361.52-10.96L361.52-10.96Q361.52-14.40 362.96-16.96Q364.40-19.52 366.90-20.88Q369.40-22.24 372.56-22.24L372.56-22.24ZM372.56-19.04Q370.60-19.04 368.94-18.16Q367.28-17.28 366.26-15.46Q365.24-13.64 365.24-10.96L365.24-10.96Q365.24-8.32 366.26-6.50Q367.28-4.68 368.94-3.80Q370.60-2.92 372.56-2.92L372.56-2.92Q374.52-2.92 376.18-3.80Q377.84-4.68 378.86-6.50Q379.88-8.32 379.88-10.96L379.88-10.96Q379.88-13.64 378.86-15.46Q377.84-17.28 376.18-18.16Q374.52-19.04 372.56-19.04L372.56-19.04Z M403.88-22.32Q407.72-22.32 410.08-19.86Q412.44-17.40 412.44-12.76L412.44-12.76L412.44 0L408.80 0L408.80-12.44Q408.80-15.72 407.12-17.48Q405.44-19.24 402.56-19.24L402.56-19.24Q399.56-19.24 397.76-17.30Q395.96-15.36 395.96-11.64L395.96-11.64L395.96 0L392.32 0L392.32-21.96L395.96-21.96L395.96-16.76Q396.80-19.44 398.94-20.88Q401.08-22.32 403.88-22.32L403.88-22.32Z M444.92-22.24Q448.12-22.24 450.34-20.64Q452.56-19.04 453.44-16.36L453.44-16.36L453.44-21.96L457.08-21.96L457.08 0L453.44 0L453.44-5.60Q452.56-2.92 450.34-1.32Q448.12 0.28 444.92 0.28L444.92 0.28Q442 0.28 439.72-1.08Q437.44-2.44 436.14-4.98Q434.84-7.52 434.84-10.96L434.84-10.96Q434.84-14.40 436.14-16.96Q437.44-19.52 439.72-20.88Q442-22.24 444.92-22.24L444.92-22.24ZM445.96-19Q442.60-19 440.58-16.86Q438.56-14.72 438.56-10.96L438.56-10.96Q438.56-7.20 440.58-5.06Q442.60-2.92 445.96-2.92L445.96-2.92Q448.12-2.92 449.82-3.92Q451.52-4.92 452.48-6.74Q453.44-8.56 453.44-10.96L453.44-10.96Q453.44-13.36 452.48-15.20Q451.52-17.04 449.82-18.02Q448.12-19 445.96-19L445.96-19Z M478.44-22.32Q482.28-22.32 484.64-19.86Q487-17.40 487-12.76L487-12.76L487 0L483.36 0L483.36-12.44Q483.36-15.72 481.68-17.48Q480-19.24 477.12-19.24L477.12-19.24Q474.12-19.24 472.32-17.30Q470.52-15.36 470.52-11.64L470.52-11.64L470.52 0L466.88 0L466.88-21.96L470.52-21.96L470.52-16.76Q471.36-19.44 473.50-20.88Q475.64-22.32 478.44-22.32L478.44-22.32Z M505.60-22.24Q508.80-22.24 511.02-20.64Q513.24-19.04 514.12-16.36L514.12-16.36L514.12-29.60L517.76-29.60L517.76 0L514.12 0L514.12-5.60Q513.24-2.92 511.02-1.32Q508.80 0.28 505.60 0.28L505.60 0.28Q502.68 0.28 500.40-1.08Q498.12-2.44 496.82-4.98Q495.52-7.52 495.52-10.96L495.52-10.96Q495.52-14.40 496.82-16.96Q498.12-19.52 500.40-20.88Q502.68-22.24 505.60-22.24L505.60-22.24ZM506.64-19Q503.28-19 501.26-16.86Q499.24-14.72 499.24-10.96L499.24-10.96Q499.24-7.20 501.26-5.06Q503.28-2.92 506.64-2.92L506.64-2.92Q508.80-2.92 510.50-3.92Q512.20-4.92 513.16-6.74Q514.12-8.56 514.12-10.96L514.12-10.96Q514.12-13.36 513.16-15.20Q512.20-17.04 510.50-18.02Q508.80-19 506.64-19L506.64-19Z M560.52 0L556.40 0L549.04-11.52L545.08-11.52L545.08 0L541.44 0L541.44-28.20L550.72-28.20Q555.52-28.20 557.92-25.90Q560.32-23.60 560.32-19.80L560.32-19.80Q560.32-16.36 558.40-14.26Q556.48-12.16 552.84-11.64L552.84-11.64L560.52 0ZM545.08-25.04L545.08-14.16L550.40-14.16Q556.60-14.16 556.60-19.60L556.60-19.60Q556.60-25.04 550.40-25.04L550.40-25.04L545.08-25.04Z M588.96-12.20Q588.96-11.04 588.80-10.20L588.80-10.20L571.24-10.20Q571.36-6.44 573.38-4.56Q575.40-2.68 578.32-2.68L578.32-2.68Q580.96-2.68 582.74-4.02Q584.52-5.36 584.92-7.60L584.92-7.60L588.80-7.60Q588.40-5.32 587.02-3.52Q585.64-1.72 583.44-0.72Q581.24 0.28 578.48 0.28L578.48 0.28Q575.32 0.28 572.88-1.08Q570.44-2.44 569.06-4.98Q567.68-7.52 567.68-10.96L567.68-10.96Q567.68-14.40 569.06-16.96Q570.44-19.52 572.88-20.88Q575.32-22.24 578.48-22.24L578.48-22.24Q581.68-22.24 584.06-20.88Q586.44-19.52 587.70-17.24Q588.96-14.96 588.96-12.20L588.96-12.20ZM585.28-11.96Q585.40-14.40 584.48-16.04Q583.56-17.68 581.96-18.48Q580.36-19.28 578.48-19.28L578.48-19.28Q575.48-19.28 573.44-17.42Q571.40-15.56 571.24-11.96L571.24-11.96L585.28-11.96Z M624.72-22.32Q628.56-22.32 630.90-19.86Q633.24-17.40 633.24-12.76L633.24-12.76L633.24 0L629.60 0L629.60-12.44Q629.60-15.68 628.02-17.40Q626.44-19.12 623.68-19.12L623.68-19.12Q620.80-19.12 619.06-17.22Q617.32-15.32 617.32-11.64L617.32-11.64L617.32 0L613.68 0L613.68-12.44Q613.68-15.68 612.08-17.40Q610.48-19.12 607.76-19.12L607.76-19.12Q604.84-19.12 603.10-17.22Q601.36-15.32 601.36-11.64L601.36-11.64L601.36 0L597.72 0L597.72-21.96L601.36-21.96L601.36-16.96Q602.16-19.56 604.22-20.94Q606.28-22.32 608.96-22.32L608.96-22.32Q611.76-22.32 613.82-20.90Q615.88-19.48 616.76-16.72L616.76-16.72Q617.68-19.40 619.84-20.86Q622.00-22.32 624.72-22.32L624.72-22.32Z M652.84-22.24Q656-22.24 658.50-20.88Q661-19.52 662.42-16.96Q663.84-14.40 663.84-10.96L663.84-10.96Q663.84-7.52 662.42-4.98Q661-2.44 658.50-1.08Q656 0.28 652.84 0.28L652.84 0.28Q649.68 0.28 647.18-1.08Q644.68-2.44 643.24-4.98Q641.80-7.52 641.80-10.96L641.80-10.96Q641.80-14.40 643.24-16.96Q644.68-19.52 647.18-20.88Q649.68-22.24 652.84-22.24L652.84-22.24ZM652.84-19.04Q650.88-19.04 649.22-18.16Q647.56-17.28 646.54-15.46Q645.52-13.64 645.52-10.96L645.52-10.96Q645.52-8.32 646.54-6.50Q647.56-4.68 649.22-3.80Q650.88-2.92 652.84-2.92L652.84-2.92Q654.80-2.92 656.46-3.80Q658.12-4.68 659.14-6.50Q660.16-8.32 660.16-10.96L660.16-10.96Q660.16-13.64 659.14-15.46Q658.12-17.28 656.46-18.16Q654.80-19.04 652.84-19.04L652.84-19.04Z M681.60-22.24Q684.80-22.24 687.02-20.64Q689.24-19.04 690.12-16.36L690.12-16.36L690.12-29.60L693.76-29.60L693.76 0L690.12 0L690.12-5.60Q689.24-2.92 687.02-1.32Q684.80 0.28 681.60 0.28L681.60 0.28Q678.68 0.28 676.40-1.08Q674.12-2.44 672.82-4.98Q671.52-7.52 671.52-10.96L671.52-10.96Q671.52-14.40 672.82-16.96Q674.12-19.52 676.40-20.88Q678.68-22.24 681.60-22.24L681.60-22.24ZM682.64-19Q679.28-19 677.26-16.86Q675.24-14.72 675.24-10.96L675.24-10.96Q675.24-7.20 677.26-5.06Q679.28-2.92 682.64-2.92L682.64-2.92Q684.80-2.92 686.50-3.92Q688.20-4.92 689.16-6.74Q690.12-8.56 690.12-10.96L690.12-10.96Q690.12-13.36 689.16-15.20Q688.20-17.04 686.50-18.02Q684.80-19 682.64-19L682.64-19Z M723.76-12.20Q723.76-11.04 723.60-10.20L723.60-10.20L706.04-10.20Q706.16-6.44 708.18-4.56Q710.20-2.68 713.12-2.68L713.12-2.68Q715.76-2.68 717.54-4.02Q719.32-5.36 719.72-7.60L719.72-7.60L723.60-7.60Q723.20-5.32 721.82-3.52Q720.44-1.72 718.24-0.72Q716.04 0.28 713.28 0.28L713.28 0.28Q710.12 0.28 707.68-1.08Q705.24-2.44 703.86-4.98Q702.48-7.52 702.48-10.96L702.48-10.96Q702.48-14.40 703.86-16.96Q705.24-19.52 707.68-20.88Q710.12-22.24 713.28-22.24L713.28-22.24Q716.48-22.24 718.86-20.88Q721.24-19.52 722.50-17.24Q723.76-14.96 723.76-12.20L723.76-12.20ZM720.08-11.96Q720.20-14.40 719.28-16.04Q718.36-17.68 716.76-18.48Q715.16-19.28 713.28-19.28L713.28-19.28Q710.28-19.28 708.24-17.42Q706.20-15.56 706.04-11.96L706.04-11.96L720.08-11.96Z M732.52-29.60L736.16-29.60L736.16 0L732.52 0L732.52-29.60Z M745.36-28.40Q745.36-29.40 746.04-30.02Q746.72-30.64 747.84-30.64L747.84-30.64Q748.96-30.64 749.64-30.02Q750.32-29.40 750.32-28.40L750.32-28.40Q750.32-27.40 749.64-26.78Q748.96-26.16 747.84-26.16L747.84-26.16Q746.72-26.16 746.04-26.78Q745.36-27.40 745.36-28.40L745.36-28.40ZM746.00-21.96L749.64-21.96L749.64 0L746.00 0L746.00-21.96Z M771.04-22.32Q774.88-22.32 777.24-19.86Q779.60-17.40 779.60-12.76L779.60-12.76L779.60 0L775.96 0L775.96-12.44Q775.96-15.72 774.28-17.48Q772.60-19.24 769.72-19.24L769.72-19.24Q766.72-19.24 764.92-17.30Q763.12-15.36 763.12-11.64L763.12-11.64L763.12 0L759.48 0L759.48-21.96L763.12-21.96L763.12-16.76Q763.96-19.44 766.10-20.88Q768.24-22.32 771.04-22.32L771.04-22.32Z M798.20-22.24Q801.40-22.24 803.62-20.64Q805.84-19.04 806.72-16.36L806.72-16.36L806.72-21.96L810.36-21.96L810.36 0.36Q810.36 3.40 809.08 5.76Q807.80 8.12 805.48 9.44Q803.16 10.76 800.08 10.76L800.08 10.76Q795.64 10.76 792.84 8.62Q790.04 6.48 789.28 2.84L789.28 2.84L792.88 2.84Q793.52 5.04 795.30 6.30Q797.08 7.56 799.88 7.56L799.88 7.56Q802.84 7.56 804.78 5.66Q806.72 3.76 806.72 0.36L806.72 0.36L806.72-5.60Q805.84-2.92 803.62-1.32Q801.40 0.28 798.20 0.28L798.20 0.28Q795.28 0.28 793.00-1.08Q790.72-2.44 789.42-4.98Q788.12-7.52 788.12-10.96L788.12-10.96Q788.12-14.40 789.42-16.96Q790.72-19.52 793.00-20.88Q795.28-22.24 798.20-22.24L798.20-22.24ZM799.24-19Q795.88-19 793.86-16.86Q791.84-14.72 791.84-10.96L791.84-10.96Q791.84-7.20 793.86-5.06Q795.88-2.92 799.24-2.92L799.24-2.92Q801.40-2.92 803.10-3.92Q804.80-4.92 805.76-6.74Q806.72-8.56 806.72-10.96L806.72-10.96Q806.72-13.36 805.76-15.20Q804.80-17.04 803.10-18.02Q801.40-19 799.24-19L799.24-19Z"/></g>
</svg>
</g><g opacity="1" transform="rotate(0 426.1773 291.6058)">
<svg width="288.8227" height="32.1047" x="426.1773" y="291.6058" version="1.1" preserveAspectRatio="none" viewBox="2.36 -32.2 292.2 32.480000000000004">
  <g transform="matrix(1 0 0 1 0 0)" class="companyName"><path d="M27.80-14.20Q27.80-10.04 26.02-6.82Q24.24-3.60 20.90-1.80Q17.56 0 13.04 0L13.04 0L2.36 0L2.36-28.28L13.04-28.28Q17.60-28.28 20.92-26.52Q24.24-24.76 26.02-21.56Q27.80-18.36 27.80-14.20L27.80-14.20ZM12.44-6.12Q16.44-6.12 18.66-8.24Q20.88-10.36 20.88-14.20L20.88-14.20Q20.88-18.04 18.66-20.16Q16.44-22.28 12.44-22.28L12.44-22.28L9.20-22.28L9.20-6.12L12.44-6.12Z M31.84-28.60Q31.84-30.16 32.96-31.18Q34.08-32.20 35.92-32.20L35.92-32.20Q37.76-32.20 38.88-31.18Q40-30.16 40-28.60L40-28.60Q40-27.08 38.88-26.06Q37.76-25.04 35.92-25.04L35.92-25.04Q34.08-25.04 32.96-26.06Q31.84-27.08 31.84-28.60L31.84-28.60ZM32.48-22.32L39.32-22.32L39.32 0L32.48 0L32.48-22.32Z M51.68-18.12Q52.96-20.16 54.98-21.36Q57-22.56 59.36-22.56L59.36-22.56L59.36-15.24L57.40-15.24Q54.68-15.24 53.18-14.08Q51.68-12.92 51.68-10.16L51.68-10.16L51.68 0L44.84 0L44.84-22.32L51.68-22.32L51.68-18.12Z M71.52-22.60Q74.08-22.60 75.92-21.44Q77.76-20.28 78.64-18.28L78.64-18.28L78.64-22.32L85.44-22.32L85.44 0L78.64 0L78.64-4.04Q77.76-2.04 75.92-0.88Q74.08 0.28 71.52 0.28L71.52 0.28Q68.76 0.28 66.58-1.10Q64.40-2.48 63.14-5.08Q61.88-7.68 61.88-11.16L61.88-11.16Q61.88-14.68 63.14-17.26Q64.40-19.84 66.58-21.22Q68.76-22.60 71.52-22.60L71.52-22.60ZM73.72-16.60Q71.52-16.60 70.18-15.16Q68.84-13.72 68.84-11.16L68.84-11.16Q68.84-8.60 70.18-7.16Q71.52-5.72 73.72-5.72L73.72-5.72Q75.88-5.72 77.26-7.20Q78.64-8.68 78.64-11.16L78.64-11.16Q78.64-13.68 77.26-15.14Q75.88-16.60 73.72-16.60L73.72-16.60Z M101.04-22.60Q105.36-22.60 108.28-20.22Q111.20-17.84 111.96-13.68L111.96-13.68L104.72-13.68Q104.40-15.12 103.40-15.92Q102.40-16.72 100.88-16.72L100.88-16.72Q99.08-16.72 97.92-15.30Q96.76-13.88 96.76-11.16L96.76-11.16Q96.76-8.44 97.92-7.02Q99.08-5.60 100.88-5.60L100.88-5.60Q102.40-5.60 103.40-6.40Q104.40-7.20 104.72-8.64L104.72-8.64L111.96-8.64Q111.20-4.48 108.28-2.10Q105.36 0.28 101.04 0.28L101.04 0.28Q97.76 0.28 95.22-1.10Q92.68-2.48 91.24-5.08Q89.80-7.68 89.80-11.16L89.80-11.16Q89.80-14.68 91.22-17.26Q92.64-19.84 95.20-21.22Q97.76-22.60 101.04-22.60L101.04-22.60Z M142.08-14.56Q144.64-13.96 146.14-12.08Q147.64-10.20 147.64-7.72L147.64-7.72Q147.64-4.08 145.22-2.04Q142.80 0 138.28 0L138.28 0L125.12 0L125.12-28.28L137.96-28.28Q142.28-28.28 144.64-26.40Q147-24.52 147-21.04L147-21.04Q147-18.48 145.64-16.78Q144.28-15.08 142.08-14.56L142.08-14.56ZM131.96-22.80L131.96-16.72L136.44-16.72Q140-16.72 140-19.76L140-19.76Q140-22.80 136.36-22.80L136.36-22.80L131.96-22.80ZM136.84-5.56Q140.64-5.56 140.64-8.68L140.64-8.68Q140.64-10.20 139.64-11.06Q138.64-11.92 136.80-11.92L136.80-11.92L131.96-11.92L131.96-5.56L136.84-5.56Z M167.36-22.32L174.24-22.32L174.24 0L167.36 0L167.36-4.04Q166.40-2.08 164.50-0.92Q162.60 0.24 160.08 0.24L160.08 0.24Q156.24 0.24 153.98-2.32Q151.72-4.88 151.72-9.36L151.72-9.36L151.72-22.32L158.52-22.32L158.52-10.20Q158.52-7.92 159.70-6.66Q160.88-5.40 162.88-5.40L162.88-5.40Q164.96-5.40 166.16-6.72Q167.36-8.04 167.36-10.48L167.36-10.48L167.36-22.32Z M179.12-28.60Q179.12-30.16 180.24-31.18Q181.36-32.20 183.20-32.20L183.20-32.20Q185.04-32.20 186.16-31.18Q187.28-30.16 187.28-28.60L187.28-28.60Q187.28-27.08 186.16-26.06Q185.04-25.04 183.20-25.04L183.20-25.04Q181.36-25.04 180.24-26.06Q179.12-27.08 179.12-28.60L179.12-28.60ZM179.76-22.32L186.60-22.32L186.60 0L179.76 0L179.76-22.32Z M192.12-29.60L198.96-29.60L198.96 0L192.12 0L192.12-29.60Z M212.96-22.60Q215.52-22.60 217.36-21.44Q219.20-20.28 220.04-18.28L220.04-18.28L220.04-29.60L226.88-29.60L226.88 0L220.04 0L220.04-4.04Q219.20-2.04 217.36-0.88Q215.52 0.28 212.96 0.28L212.96 0.28Q210.20 0.28 208.02-1.10Q205.84-2.48 204.58-5.08Q203.32-7.68 203.32-11.16L203.32-11.16Q203.32-14.68 204.58-17.26Q205.84-19.84 208.02-21.22Q210.20-22.60 212.96-22.60L212.96-22.60ZM215.16-16.60Q212.96-16.60 211.62-15.16Q210.28-13.72 210.28-11.16L210.28-11.16Q210.28-8.60 211.62-7.16Q212.96-5.72 215.16-5.72L215.16-5.72Q217.32-5.72 218.70-7.20Q220.08-8.68 220.08-11.16L220.08-11.16Q220.08-13.68 218.70-15.14Q217.32-16.60 215.16-16.60L215.16-16.60Z M253.60-11.76Q253.60-10.92 253.40-9.92L253.40-9.92L237.92-9.92Q238.04-7.40 239.20-6.30Q240.36-5.20 242.16-5.20L242.16-5.20Q243.68-5.20 244.68-5.96Q245.68-6.72 246.00-7.92L246.00-7.92L253.24-7.92Q252.80-5.56 251.32-3.70Q249.84-1.84 247.56-0.78Q245.28 0.28 242.48 0.28L242.48 0.28Q239.20 0.28 236.66-1.10Q234.12-2.48 232.68-5.08Q231.24-7.68 231.24-11.16L231.24-11.16Q231.24-14.68 232.66-17.26Q234.08-19.84 236.64-21.22Q239.20-22.60 242.48-22.60L242.48-22.60Q245.80-22.60 248.32-21.24Q250.84-19.88 252.22-17.42Q253.60-14.96 253.60-11.76L253.60-11.76ZM246.68-12.80Q246.72-15 245.50-16.10Q244.28-17.20 242.48-17.20L242.48-17.20Q240.60-17.20 239.36-16.08Q238.12-14.96 237.96-12.80L237.96-12.80L246.68-12.80Z M264.80-18.12Q266.08-20.16 268.10-21.36Q270.12-22.56 272.48-22.56L272.48-22.56L272.48-15.24L270.52-15.24Q267.80-15.24 266.30-14.08Q264.80-12.92 264.80-10.16L264.80-10.16L264.80 0L257.96 0L257.96-22.32L264.80-22.32L264.80-18.12Z M284.28-22.60Q288.52-22.60 291.06-20.48Q293.60-18.36 294.24-14.88L294.24-14.88L287.84-14.88Q287.56-16.24 286.58-17.02Q285.60-17.80 284.12-17.80L284.12-17.80Q282.96-17.80 282.36-17.30Q281.76-16.80 281.76-15.88L281.76-15.88Q281.76-14.84 282.86-14.32Q283.96-13.80 286.32-13.28L286.32-13.28Q288.88-12.68 290.52-12.06Q292.16-11.44 293.36-10.04Q294.56-8.64 294.56-6.28L294.56-6.28Q294.56-4.36 293.52-2.88Q292.48-1.40 290.52-0.56Q288.56 0.28 285.88 0.28L285.88 0.28Q281.36 0.28 278.64-1.72Q275.92-3.72 275.32-7.44L275.32-7.44L281.92-7.44Q282.08-6 283.14-5.24Q284.20-4.48 285.88-4.48L285.88-4.48Q287.04-4.48 287.64-5.02Q288.24-5.56 288.24-6.44L288.24-6.44Q288.24-7.60 287.14-8.10Q286.04-8.60 283.56-9.16L283.56-9.16Q281.08-9.68 279.48-10.28Q277.88-10.88 276.72-12.22Q275.56-13.56 275.56-15.88L275.56-15.88Q275.56-18.88 277.84-20.74Q280.12-22.60 284.28-22.60L284.28-22.60Z"/></g>
</svg>
</g></svg>